<svg xmlns="http://www.w3.org/2000/svg" width="263" height="114"><title>Logo</title><desc>Created with Sketch.</desc><g fill="none"><g><g><path fill="#000" d="M39.57 51.48c0-4.03-.95-7.2-2.87-9.54-1.92-2.33-4.92-3.5-9-3.5-1.9 0-3.78.3-5.67.9-1.9.6-3.46 1.48-4.7 2.67 2.7.9 4.8 2.33 6.33 4.25 1.52 1.92 2.27 4.33 2.27 7.23 0 2-.48 3.78-1.45 5.37-.97 1.6-2.36 2.85-4.16 3.78-1.8.92-3.86 1.38-6.18 1.38-3.13 0-5.63-1.05-7.5-3.2-1.87-2.13-2.8-4.8-2.8-8.04 0-5.03 2.7-9.1 8.1-12.24 5.92-3.28 13.3-4.92 22.16-4.92 9.95 0 17.03 2.2 21.25 6.55 2.03 2.04 3.4 4.58 4.12 7.62.7 3.04 1.06 7.3 1.06 12.75v39.66c0 2.37.23 4.05.68 5.02.46.97 1.25 1.46 2.4 1.46 1.55 0 3.35-.83 5.4-2.5l1.48 2.5c-2.22 1.85-4.64 3.2-7.25 4.06-2.6.85-5.73 1.28-9.37 1.28-4.93 0-8.48-1.1-10.66-3.28-2.18-2.18-3.27-5.03-3.27-8.54-2.37 3.94-5.47 6.9-9.3 8.86-3.84 1.97-7.94 2.96-12.3 2.96-5.54 0-9.98-1.46-13.32-4.38-3.33-2.92-5-7-5-12.2 0-5.1 1.66-9.3 4.97-12.6 3.32-3.34 8.46-6.28 15.42-8.84.75-.3 3.2-1.23 7.38-2.82 4.17-1.6 7.18-3.2 9.02-4.87 1.85-1.68 2.77-3.5 2.77-5.5V51.48zm0 17.3c-.6 1.05-1.62 2.13-3 3.24-1.4 1.12-3.4 2.48-6.02 4.1-3.08 2.13-5.5 4.54-7.25 7.23-1.75 2.68-2.62 6-2.62 10 0 3.8.82 6.63 2.48 8.5 1.66 1.88 3.84 2.82 6.54 2.82 3.84 0 7.13-2 9.87-5.98V68.77zM93.57 0c4.03 0 7.24 1 9.63 3 2.4 1.98 3.6 4.7 3.6 8.18 0 3.5-1.2 6.27-3.6 8.26-2.4 2-5.6 3-9.63 3-4.12 0-7.36-1-9.73-3s-3.55-4.75-3.55-8.26c0-3.47 1.17-6.2 3.54-8.2C86.2 1 89.44 0 93.57 0zm11.37 99.47c0 2.7.3 4.82.92 6.34.62 1.53 1.6 2.6 2.92 3.22 1.32.6 3.15.92 5.47.92V113c-9.66-.38-16.1-.57-19.33-.57-3.08 0-9.83.2-20.25.57v-3.06c2.32 0 4.16-.3 5.5-.92 1.36-.62 2.33-1.7 2.92-3.2.6-1.53.88-3.64.88-6.35v-46c0-4.5-.7-7.77-2.06-9.8-1.37-2-3.8-3-7.25-3V37.6c3.08.28 6.1.42 9.03.42 8.57 0 15.65-.66 21.24-2v63.45zm45.83-49.9c1.85-4.14 4.5-7.5 8-10.1 3.47-2.57 7.42-3.87 11.82-3.87 2.93 0 5.4.64 7.38 1.93 2 1.28 3.46 2.93 4.4 4.94.95 2.02 1.43 4.2 1.43 6.52 0 3.6-1.04 6.54-3.12 8.82-2.08 2.28-4.83 3.42-8.24 3.42-3.32 0-5.93-.85-7.85-2.53-1.93-1.68-2.9-3.94-2.9-6.8 0-4.64 2.14-8.44 6.4-11.38-.6-.15-1.2-.22-1.77-.22-.66 0-1.42.12-2.28.36-2.46.38-4.7 1.55-6.74 3.52-2.03 1.97-3.63 4.33-4.8 7.1-1.15 2.74-1.73 5.42-1.73 8.03V98c0 4.5 1.1 7.63 3.27 9.36 2.18 1.73 5.66 2.6 10.44 2.6V113c-12.12-.38-19.85-.57-23.16-.57-3.08 0-10.02.2-20.82.57v-3.06c2.32 0 4.16-.3 5.5-.92 1.36-.62 2.33-1.7 2.92-3.2.6-1.53.9-3.64.9-6.35v-46c0-4.5-.7-7.77-2.07-9.8-1.38-2-3.8-3-7.25-3V37.6c3.08.28 6.1.42 9.02.42 8.58 0 15.66-.66 21.25-2v13.54zM207.32 0c4.03 0 7.24 1 9.63 3 2.4 1.98 3.6 4.7 3.6 8.18 0 3.5-1.2 6.27-3.6 8.26-2.4 2-5.6 3-9.63 3-4.12 0-7.36-1-9.73-3-2.38-2-3.56-4.75-3.56-8.26 0-3.47 1.18-6.2 3.55-8.2C199.95 1 203.2 0 207.3 0zm11.37 99.47c0 2.7.3 4.82.92 6.34.6 1.53 1.58 2.6 2.9 3.22 1.34.6 3.16.92 5.48.92V113c-9.66-.38-16.1-.57-19.33-.57-3.07 0-9.82.2-20.24.57v-3.06c2.32 0 4.15-.3 5.5-.92 1.35-.62 2.32-1.7 2.9-3.2.6-1.53.9-3.64.9-6.35v-46c0-4.5-.68-7.77-2.06-9.8-1.37-2-3.8-3-7.24-3V37.6c3.07.28 6.08.42 9.02.42 8.57 0 15.65-.66 21.24-2v63.45z"/><path fill="#CF987E" d="M250.46 92c3.87 0 6.93 1 9.17 2.96 2.25 1.97 3.37 4.65 3.37 8.04 0 3.4-1.12 6.07-3.37 8.04-2.24 1.97-5.3 2.96-9.17 2.96-3.82 0-6.85-1-9.1-2.96-2.24-1.97-3.36-4.65-3.36-8.04 0-3.4 1.12-6.07 3.37-8.04 2.24-1.97 5.27-2.96 9.1-2.96z"/></g></g></g></svg>